<?xml version="1.0" encoding="UTF-8"?>
<svg width="192" height="192" version="1.1" viewBox="0 0 192 192" xmlns="http://www.w3.org/2000/svg" xmlns:cc="http://creativecommons.org/ns#" xmlns:dc="http://purl.org/dc/elements/1.1/" xmlns:rdf="http://www.w3.org/1999/02/22-rdf-syntax-ns#">
 <defs>
  <filter id="filter2042" width="1.5" height="1.5" color-interpolation-filters="sRGB">
   <feFlood flood-color="rgb(33,33,33)" flood-opacity=".2" result="flood"/>
   <feComposite in="flood" in2="SourceGraphic" operator="in" result="composite1"/>
   <feGaussianBlur in="composite1" result="blur" stdDeviation="4"/>
   <feOffset dx="4" dy="4" result="offset"/>
   <feComposite in="offset" in2="offset" operator="atop" result="composite2"/>
  </filter>
 </defs>
 <metadata>
  <rdf:RDF>
   <cc:Work rdf:about="">
    <dc:format>image/svg+xml</dc:format>
    <dc:type rdf:resource="http://purl.org/dc/dcmitype/StillImage"/>
    <dc:title/>
   </cc:Work>
  </rdf:RDF>
 </metadata>
 <path d="m0 0h192v192h-192z" fill="#f44336" stroke-width="75.59"/>
 <path d="m57.43 42.562 30 51.707 30-51.707h-60zm30 51.707-30 51.707h60l-30-51.707z" fill="#90caf9" filter="url(#filter2042)" stroke="#fff" stroke-linejoin="round" stroke-width="5"/>
 <g shape-rendering="auto">
  <path d="m66 44.293 30 51.707 30-51.707zm30 51.707-30 51.707h60z" color="#000000" color-rendering="auto" dominant-baseline="auto" fill="#90caf9" image-rendering="auto" solid-color="#000000" stop-color="#000000" style="font-feature-settings:normal;font-variant-alternates:normal;font-variant-caps:normal;font-variant-east-asian:normal;font-variant-ligatures:normal;font-variant-numeric:normal;font-variant-position:normal;font-variation-settings:normal;inline-size:0;isolation:auto;mix-blend-mode:normal;shape-margin:0;shape-padding:0;text-decoration-color:#000000;text-decoration-line:none;text-decoration-style:solid;text-indent:0;text-orientation:mixed;text-transform:none;white-space:normal"/>
  <path d="m66 41.793a2.5002 2.5002 0 0 0-2.1621 3.7539l29.273 50.453-29.273 50.453a2.5002 2.5002 0 0 0 2.1621 3.7539h60a2.5002 2.5002 0 0 0 2.1621-3.7539l-29.273-50.453 29.273-50.453a2.5002 2.5002 0 0 0-2.1621-3.7539h-60zm4.3398 5h51.32l-25.66 44.227-25.66-44.227zm25.66 54.188 25.66 44.227h-51.32l25.66-44.227z" color="#000000" color-rendering="auto" dominant-baseline="auto" fill="#fff" image-rendering="auto" solid-color="#000000" stop-color="#000000" style="font-feature-settings:normal;font-variant-alternates:normal;font-variant-caps:normal;font-variant-east-asian:normal;font-variant-ligatures:normal;font-variant-numeric:normal;font-variant-position:normal;font-variation-settings:normal;inline-size:0;isolation:auto;mix-blend-mode:normal;shape-margin:0;shape-padding:0;text-decoration-color:#000000;text-decoration-line:none;text-decoration-style:solid;text-indent:0;text-orientation:mixed;text-transform:none;white-space:normal"/>
 </g>
 <path d="m128.45 147.21c-0.23671 1.1639-1.2596 2.0006-2.4473 2.002h-60c-1.1871-1e-3 -2.2097-0.8369-2.4473-2-0.31594 1.5488 0.8666 2.9984 2.4473 3h60c1.5816-1e-3 2.7646-1.4525 2.4473-3.002z" color="#000000" color-rendering="auto" dominant-baseline="auto" fill-opacity=".2" image-rendering="auto" shape-rendering="auto" solid-color="#000000" stop-color="#000000" style="font-feature-settings:normal;font-variant-alternates:normal;font-variant-caps:normal;font-variant-east-asian:normal;font-variant-ligatures:normal;font-variant-numeric:normal;font-variant-position:normal;font-variation-settings:normal;inline-size:0;isolation:auto;mix-blend-mode:normal;shape-margin:0;shape-padding:0;text-decoration-color:#000000;text-decoration-line:none;text-decoration-style:solid;text-indent:0;text-orientation:mixed;text-transform:none;white-space:normal"/>
 <path d="m66.001 41.793c-1.5824 1.12e-4 -2.7668 1.4517-2.4492 3.002 0.23686-1.1646 1.2608-2.0015 2.4492-2.002h60c1.1871 0.0012 2.2098 0.83689 2.4473 2 0.31594-1.5488-0.86661-2.9984-2.4473-3z" color="#000000" color-rendering="auto" dominant-baseline="auto" fill="#fff" fill-opacity=".2" image-rendering="auto" shape-rendering="auto" solid-color="#000000" stop-color="#000000" style="font-feature-settings:normal;font-variant-alternates:normal;font-variant-caps:normal;font-variant-east-asian:normal;font-variant-ligatures:normal;font-variant-numeric:normal;font-variant-position:normal;font-variation-settings:normal;inline-size:0;isolation:auto;mix-blend-mode:normal;shape-margin:0;shape-padding:0;text-decoration-color:#000000;text-decoration-line:none;text-decoration-style:solid;text-indent:0;text-orientation:mixed;text-transform:none;white-space:normal"/>
</svg>
